<svg width="125" height="29" viewBox="0 0 125 29" fill="none" xmlns="http://www.w3.org/2000/svg">
<mask id="mask0_1_130" style="mask-type:alpha" maskUnits="userSpaceOnUse" x="0" y="2" width="125" height="27">
<path d="M12 24C17.5229 24 22 19.5229 22 14C22 8.47715 17.5229 4 12 4C6.47715 4 2 8.47715 2 14C2 19.5229 6.47715 24 12 24Z" stroke="white" stroke-width="2" stroke-linejoin="round"/>
<path d="M12 11C12.8285 11 13.5 10.3285 13.5 9.5C13.5 8.67155 12.8285 8 12 8C11.1715 8 10.5 8.67155 10.5 9.5C10.5 10.3285 11.1715 11 12 11Z" stroke="white" stroke-width="2" stroke-linejoin="round"/>
<path d="M12 20C12.8285 20 13.5 19.3285 13.5 18.5C13.5 17.6715 12.8285 17 12 17C11.1715 17 10.5 17.6715 10.5 18.5C10.5 19.3285 11.1715 20 12 20Z" stroke="white" stroke-width="2" stroke-linejoin="round"/>
<path d="M7.5 15.5C8.32845 15.5 9 14.8285 9 14C9 13.1715 8.32845 12.5 7.5 12.5C6.67155 12.5 6 13.1715 6 14C6 14.8285 6.67155 15.5 7.5 15.5Z" stroke="white" stroke-width="2" stroke-linejoin="round"/>
<path d="M16.5 15.5C17.3285 15.5 18 14.8285 18 14C18 13.1715 17.3285 12.5 16.5 12.5C15.6715 12.5 15 13.1715 15 14C15 14.8285 15.6715 15.5 16.5 15.5Z" stroke="white" stroke-width="2" stroke-linejoin="round"/>
<path d="M12 24H22" stroke="white" stroke-width="2" stroke-linecap="round"/>
<path d="M31.656 6.864V24H35.424V6.864H31.656ZM44.1581 21.072C43.6301 21.072 43.1901 20.96 42.8381 20.736C42.4861 20.512 42.1981 20.224 41.9741 19.872C41.7661 19.52 41.6141 19.128 41.5181 18.696C41.4381 18.248 41.3981 17.8 41.3981 17.352C41.3981 16.888 41.4461 16.448 41.5421 16.032C41.6541 15.6 41.8221 15.224 42.0461 14.904C42.2861 14.568 42.5741 14.304 42.9101 14.112C43.2621 13.92 43.6781 13.824 44.1581 13.824C44.7181 13.824 45.1821 13.928 45.5501 14.136C45.9181 14.344 46.2141 14.624 46.4381 14.976C46.6621 15.328 46.8221 15.736 46.9181 16.2C47.0141 16.648 47.0621 17.128 47.0621 17.64C47.0621 18.088 46.9981 18.52 46.8701 18.936C46.7581 19.336 46.5821 19.696 46.3421 20.016C46.1021 20.336 45.7981 20.592 45.4301 20.784C45.0621 20.976 44.6381 21.072 44.1581 21.072ZM50.3021 23.208V11.592H47.0621V13.248H47.0141C46.5981 12.528 46.0781 12.016 45.4541 11.712C44.8461 11.408 44.1341 11.256 43.3181 11.256C42.4541 11.256 41.6861 11.424 41.0141 11.76C40.3581 12.096 39.8061 12.552 39.3581 13.128C38.9101 13.688 38.5661 14.344 38.3261 15.096C38.1021 15.832 37.9901 16.6 37.9901 17.4C37.9901 18.248 38.0861 19.056 38.2781 19.824C38.4861 20.576 38.8061 21.24 39.2381 21.816C39.6701 22.376 40.2221 22.824 40.8941 23.16C41.5661 23.48 42.3661 23.64 43.2941 23.64C44.0461 23.64 44.7581 23.488 45.4301 23.184C46.1181 22.864 46.6461 22.376 47.0141 21.72H47.0621V23.352C47.0781 24.232 46.8621 24.96 46.4141 25.536C45.9821 26.112 45.2861 26.4 44.3261 26.4C43.7181 26.4 43.1821 26.272 42.7181 26.016C42.2541 25.776 41.9421 25.336 41.7821 24.696H38.3981C38.4461 25.4 38.6381 26 38.9741 26.496C39.3261 27.008 39.7581 27.424 40.2701 27.744C40.7981 28.064 41.3741 28.296 41.9981 28.44C42.6381 28.6 43.2621 28.68 43.8701 28.68C45.2941 28.68 46.4301 28.488 47.2781 28.104C48.1261 27.72 48.7741 27.248 49.2221 26.688C49.6701 26.144 49.9581 25.552 50.0861 24.912C50.2301 24.272 50.3021 23.704 50.3021 23.208ZM53.046 11.592V24H56.454V17.496C56.454 16.232 56.662 15.328 57.078 14.784C57.494 14.224 58.166 13.944 59.094 13.944C59.91 13.944 60.478 14.2 60.798 14.712C61.118 15.208 61.278 15.968 61.278 16.992V24H64.686V16.368C64.686 15.6 64.614 14.904 64.47 14.28C64.342 13.64 64.11 13.104 63.774 12.672C63.438 12.224 62.974 11.88 62.382 11.64C61.806 11.384 61.062 11.256 60.15 11.256C59.43 11.256 58.726 11.424 58.038 11.76C57.35 12.08 56.79 12.6 56.358 13.32H56.286V11.592H53.046ZM70.7766 9.672V6.864H67.3686V9.672H70.7766ZM67.3686 11.592V24H70.7766V11.592H67.3686ZM76.1001 19.968H72.8601C72.8921 20.8 73.0761 21.496 73.4121 22.056C73.7641 22.6 74.2041 23.04 74.7321 23.376C75.2761 23.712 75.8921 23.952 76.5801 24.096C77.2681 24.24 77.9721 24.312 78.6921 24.312C79.3961 24.312 80.0841 24.24 80.7561 24.096C81.4441 23.968 82.0521 23.736 82.5801 23.4C83.1081 23.064 83.5321 22.624 83.8521 22.08C84.1881 21.52 84.3561 20.832 84.3561 20.016C84.3561 19.44 84.2441 18.96 84.0201 18.576C83.7961 18.176 83.5001 17.848 83.1321 17.592C82.7641 17.32 82.3401 17.104 81.8601 16.944C81.3961 16.784 80.9161 16.648 80.4201 16.536C79.9401 16.424 79.4681 16.32 79.0041 16.224C78.5401 16.128 78.1241 16.024 77.7561 15.912C77.4041 15.784 77.1161 15.624 76.8921 15.432C76.6681 15.24 76.5561 14.992 76.5561 14.688C76.5561 14.432 76.6201 14.232 76.7481 14.088C76.8761 13.928 77.0281 13.808 77.2041 13.728C77.3961 13.648 77.6041 13.6 77.8281 13.584C78.0521 13.552 78.2601 13.536 78.4521 13.536C79.0601 13.536 79.5881 13.656 80.0361 13.896C80.4841 14.12 80.7321 14.56 80.7801 15.216H84.0201C83.9561 14.448 83.7561 13.816 83.4201 13.32C83.1001 12.808 82.6921 12.4 82.1961 12.096C81.7001 11.792 81.1321 11.576 80.4921 11.448C79.8681 11.32 79.2201 11.256 78.5481 11.256C77.8761 11.256 77.2201 11.32 76.5801 11.448C75.9401 11.56 75.3641 11.768 74.8521 12.072C74.3401 12.36 73.9241 12.76 73.6041 13.272C73.3001 13.784 73.1481 14.44 73.1481 15.24C73.1481 15.784 73.2601 16.248 73.4841 16.632C73.7081 17 74.0041 17.312 74.3721 17.568C74.7401 17.808 75.1561 18.008 75.6201 18.168C76.1001 18.312 76.5881 18.44 77.0841 18.552C78.3001 18.808 79.2441 19.064 79.9161 19.32C80.6041 19.576 80.9481 19.96 80.9481 20.472C80.9481 20.776 80.8761 21.032 80.7321 21.24C80.5881 21.432 80.4041 21.592 80.1801 21.72C79.9721 21.832 79.7321 21.92 79.4601 21.984C79.2041 22.032 78.9561 22.056 78.7161 22.056C78.3801 22.056 78.0521 22.016 77.7321 21.936C77.4281 21.856 77.1561 21.736 76.9161 21.576C76.6761 21.4 76.4761 21.184 76.3161 20.928C76.1721 20.656 76.1001 20.336 76.1001 19.968ZM86.7107 6.864V24H90.4787V16.92H97.6547V13.992H90.4787V10.032H98.7587V6.864H86.7107ZM100.673 6.864V24H104.081V6.864H100.673ZM110.269 9.672V6.864H106.861V9.672H110.269ZM106.861 11.592V24H110.269V11.592H106.861ZM116.12 17.472L111.656 24H115.472L118.064 20.088L120.656 24H124.544L119.96 17.4L124.04 11.592H120.272L118.112 14.832L115.928 11.592H112.04L116.12 17.472Z" fill="white"/>
</mask>
<g mask="url(#mask0_1_130)">
<rect width="129" height="33" fill="url(#paint0_linear_1_130)"/>
</g>
<defs>
<linearGradient id="paint0_linear_1_130" x1="105.857" y1="2.83832" x2="98.5732" y2="42.8132" gradientUnits="userSpaceOnUse">
<stop offset="0.0721884" stop-color="#F52D2D"/>
<stop offset="1" stop-color="#3A2FAF"/>
</linearGradient>
</defs>
</svg>
